<mxfile host="app.diagrams.net" agent="Mozilla/5.0 (X11; Linux x86_64) AppleWebKit/537.36 (KHTML, like Gecko) Chrome/135.0.0.0 Safari/537.36" version="26.2.14">
  <diagram name="Page-1" id="xY7Y9Oos8QLwP_RwW15e">
    <mxGraphModel dx="1493" dy="643" grid="1" gridSize="10" guides="1" tooltips="1" connect="1" arrows="1" fold="1" page="1" pageScale="1" pageWidth="850" pageHeight="1100" math="0" shadow="0">
      <root>
        <mxCell id="0" />
        <mxCell id="1" parent="0" />
        <mxCell id="7lw48KIsfyu1nwqouXoW-1" value="Carpooler" style="shape=umlActor;verticalLabelPosition=bottom;verticalAlign=top;html=1;" vertex="1" parent="1">
          <mxGeometry y="40" width="40" height="80" as="geometry" />
        </mxCell>
        <mxCell id="7lw48KIsfyu1nwqouXoW-2" value="" style="endArrow=classic;html=1;rounded=0;curved=1;" edge="1" parent="1">
          <mxGeometry width="50" height="50" relative="1" as="geometry">
            <mxPoint x="20" y="150" as="sourcePoint" />
            <mxPoint x="100" y="190" as="targetPoint" />
            <Array as="points">
              <mxPoint x="30" y="180" />
              <mxPoint x="60" y="190" />
            </Array>
          </mxGeometry>
        </mxCell>
        <mxCell id="7lw48KIsfyu1nwqouXoW-3" value="επιλογή &lt;br&gt;&quot;Accept&quot; / &quot;Reject&quot;" style="text;html=1;align=center;verticalAlign=middle;whiteSpace=wrap;rounded=0;" vertex="1" parent="1">
          <mxGeometry x="-10" y="200" width="110" height="20" as="geometry" />
        </mxCell>
        <mxCell id="7lw48KIsfyu1nwqouXoW-4" value="&lt;font style=&quot;font-size: 9px;&quot;&gt;Ενημέρωσε διαθεσιμότητα για το pickup και συνέχεια&lt;/font&gt;" style="ellipse;shape=umlControl;whiteSpace=wrap;html=1;" vertex="1" parent="1">
          <mxGeometry x="120" y="270" width="100" height="80" as="geometry" />
        </mxCell>
        <mxCell id="7lw48KIsfyu1nwqouXoW-5" value="Pickup Details" style="ellipse;shape=umlEntity;whiteSpace=wrap;html=1;" vertex="1" parent="1">
          <mxGeometry x="280" y="270" width="80" height="80" as="geometry" />
        </mxCell>
        <mxCell id="7lw48KIsfyu1nwqouXoW-6" value="" style="endArrow=none;html=1;rounded=0;entryX=1.01;entryY=0.548;entryDx=0;entryDy=0;entryPerimeter=0;exitX=0.013;exitY=0.555;exitDx=0;exitDy=0;exitPerimeter=0;" edge="1" parent="1" source="7lw48KIsfyu1nwqouXoW-5" target="7lw48KIsfyu1nwqouXoW-4">
          <mxGeometry width="50" height="50" relative="1" as="geometry">
            <mxPoint x="280" y="320" as="sourcePoint" />
            <mxPoint x="280.1" y="280" as="targetPoint" />
          </mxGeometry>
        </mxCell>
        <mxCell id="7lw48KIsfyu1nwqouXoW-7" value="" style="endArrow=classic;html=1;rounded=0;curved=1;" edge="1" parent="1">
          <mxGeometry width="50" height="50" relative="1" as="geometry">
            <mxPoint x="174.70999999999998" y="370" as="sourcePoint" />
            <mxPoint x="270" y="440" as="targetPoint" />
            <Array as="points">
              <mxPoint x="200" y="410" />
            </Array>
          </mxGeometry>
        </mxCell>
        <mxCell id="7lw48KIsfyu1nwqouXoW-8" value="Εμφάνισε μήνυμα επιτυχίας" style="ellipse;shape=umlControl;whiteSpace=wrap;html=1;" vertex="1" parent="1">
          <mxGeometry x="280" y="430" width="70" height="80" as="geometry" />
        </mxCell>
        <mxCell id="7lw48KIsfyu1nwqouXoW-9" value="&lt;font style=&quot;font-size: 9px;&quot;&gt;Ειδοποίηση Επιτυχούς δήλωσης διαθεσιμότητας&lt;/font&gt;" style="shape=umlBoundary;whiteSpace=wrap;html=1;" vertex="1" parent="1">
          <mxGeometry x="100" y="440" width="100" height="80" as="geometry" />
        </mxCell>
        <mxCell id="7lw48KIsfyu1nwqouXoW-12" value="&lt;font size=&quot;1&quot;&gt;Σελίδα λεπτομεριών pickup arangement&lt;/font&gt;" style="shape=umlBoundary;whiteSpace=wrap;html=1;" vertex="1" parent="1">
          <mxGeometry x="110" y="140" width="100" height="80" as="geometry" />
        </mxCell>
        <mxCell id="7lw48KIsfyu1nwqouXoW-18" value="" style="endArrow=classic;html=1;rounded=0;" edge="1" parent="1">
          <mxGeometry width="50" height="50" relative="1" as="geometry">
            <mxPoint x="230" y="179.71" as="sourcePoint" />
            <mxPoint x="280" y="179.71" as="targetPoint" />
          </mxGeometry>
        </mxCell>
        <mxCell id="7lw48KIsfyu1nwqouXoW-19" value="Έλεγχος επιλογής" style="ellipse;shape=umlControl;whiteSpace=wrap;html=1;" vertex="1" parent="1">
          <mxGeometry x="290" y="130" width="70" height="80" as="geometry" />
        </mxCell>
        <mxCell id="7lw48KIsfyu1nwqouXoW-20" value="" style="endArrow=classic;html=1;rounded=0;curved=1;" edge="1" parent="1">
          <mxGeometry width="50" height="50" relative="1" as="geometry">
            <mxPoint x="320" y="220" as="sourcePoint" />
            <mxPoint x="200" y="260" as="targetPoint" />
            <Array as="points">
              <mxPoint x="300" y="240" />
              <mxPoint x="270" y="240" />
              <mxPoint x="220" y="240" />
            </Array>
          </mxGeometry>
        </mxCell>
        <mxCell id="7lw48KIsfyu1nwqouXoW-21" value="&quot;Accept&quot;" style="text;html=1;align=center;verticalAlign=middle;whiteSpace=wrap;rounded=0;" vertex="1" parent="1">
          <mxGeometry x="230" y="210" width="60" height="30" as="geometry" />
        </mxCell>
        <mxCell id="7lw48KIsfyu1nwqouXoW-22" value="" style="endArrow=classic;html=1;rounded=0;" edge="1" parent="1">
          <mxGeometry width="50" height="50" relative="1" as="geometry">
            <mxPoint x="260" y="480" as="sourcePoint" />
            <mxPoint x="220" y="480" as="targetPoint" />
          </mxGeometry>
        </mxCell>
        <mxCell id="7lw48KIsfyu1nwqouXoW-23" value="" style="endArrow=classic;html=1;rounded=0;curved=1;" edge="1" parent="1">
          <mxGeometry width="50" height="50" relative="1" as="geometry">
            <mxPoint x="360" y="140" as="sourcePoint" />
            <mxPoint x="430" y="100" as="targetPoint" />
            <Array as="points">
              <mxPoint x="370" y="110" />
              <mxPoint x="400" y="100" />
            </Array>
          </mxGeometry>
        </mxCell>
        <mxCell id="7lw48KIsfyu1nwqouXoW-24" value="&lt;font style=&quot;font-size: 9px;&quot;&gt;Ενημέρωσε διαθεσιμότητα για το pickup και λήξη arrangement&lt;/font&gt;" style="ellipse;shape=umlControl;whiteSpace=wrap;html=1;" vertex="1" parent="1">
          <mxGeometry x="450" y="40" width="90" height="90" as="geometry" />
        </mxCell>
        <mxCell id="7lw48KIsfyu1nwqouXoW-26" value="" style="endArrow=none;html=1;rounded=0;entryX=0.506;entryY=1.014;entryDx=0;entryDy=0;entryPerimeter=0;exitX=1;exitY=0.5;exitDx=0;exitDy=0;" edge="1" parent="1" source="7lw48KIsfyu1nwqouXoW-5" target="7lw48KIsfyu1nwqouXoW-24">
          <mxGeometry width="50" height="50" relative="1" as="geometry">
            <mxPoint x="495" y="200" as="sourcePoint" />
            <mxPoint x="540" y="194" as="targetPoint" />
            <Array as="points">
              <mxPoint x="496" y="310" />
            </Array>
          </mxGeometry>
        </mxCell>
      </root>
    </mxGraphModel>
  </diagram>
</mxfile>
